<svg preserveAspectRatio="none" width="100%" height="100%" overflow="visible" style="display: block;" viewBox="0 0 38.858 12.7499" fill="none" xmlns="http://www.w3.org/2000/svg">
<g id="Vector">
<path d="M0 0H8.41899V4.24997H4.2095L0 0ZM0 4.24997H4.2095L8.41899 8.49994H0V4.24997ZM0 8.49994H4.2095V12.7499L0 8.49994Z" fill="black"/>
<path d="M13.1693 3.35281H16.5724V4.44462H14.4573V5.96187H16.5724V7.02956H14.4573V8.97226H13.1693V3.35281ZM17.2721 5.10281H18.4887V5.91365C18.5522 5.63501 18.6822 5.42112 18.8783 5.2714C19.0794 5.11604 19.3026 5.03865 19.5462 5.03865C19.6735 5.03865 19.7796 5.04954 19.8642 5.07073V6.21076C19.7428 6.19598 19.6207 6.18801 19.4984 6.18665C19.1645 6.18665 18.913 6.29612 18.7431 6.51565C18.5738 6.72973 18.4887 7.05076 18.4887 7.47912V8.97226H17.2726V5.10281H17.2721ZM21.7847 9.07667C21.4138 9.07667 21.0902 8.9882 20.8146 8.81165C20.5442 8.63509 20.3293 8.38445 20.1945 8.08909C20.0514 7.77895 19.9793 7.42798 19.9793 7.03754C19.9793 6.65215 20.0541 6.30409 20.2024 5.99395C20.3414 5.69431 20.5621 5.44095 20.8385 5.26342C21.1191 5.08687 21.44 4.9984 21.8007 4.9984C22.0709 4.9984 22.3124 5.05751 22.5243 5.17515C22.7361 5.29317 22.8952 5.45379 23.0013 5.65679V5.10281H24.2098V8.97226H23.0013V8.42626C22.8952 8.61895 22.7309 8.77665 22.5083 8.89992C22.2856 9.01912 22.0368 9.07979 21.7847 9.07667ZM22.1346 8.05701C22.426 8.05701 22.6514 7.96076 22.8105 7.76806C22.9695 7.57537 23.0491 7.33173 23.0491 7.03754C23.0491 6.74859 22.9695 6.50767 22.8105 6.31498C22.6514 6.12229 22.426 6.02604 22.1346 6.02604C21.8587 6.02604 21.6364 6.11956 21.4667 6.30701C21.3025 6.49445 21.2202 6.7377 21.2202 7.03754C21.2202 7.33737 21.3025 7.58334 21.4667 7.77604C21.6364 7.96348 21.859 8.05701 22.1346 8.05701ZM25.0607 5.10281H26.2773V5.66476C26.3624 5.46642 26.4999 5.30581 26.6906 5.18312C26.8871 5.06042 27.1149 4.9984 27.3745 4.9984C27.9789 4.9984 28.3793 5.2364 28.5751 5.71298C28.683 5.49695 28.8517 5.31826 29.0603 5.19926C29.2833 5.06373 29.5394 4.99431 29.7996 4.9984C30.7062 4.9984 31.1593 5.52262 31.1593 6.57184V8.97226H29.9348V6.79662C29.9348 6.5347 29.8871 6.34201 29.7917 6.21873C29.6962 6.09584 29.5531 6.03401 29.3623 6.03401C29.1556 6.03401 28.9965 6.10634 28.8852 6.25081C28.7739 6.39004 28.7182 6.63329 28.7182 6.98134V8.97226H27.4937V6.78865C27.4937 6.52654 27.4462 6.33637 27.3506 6.21873C27.2609 6.09584 27.1201 6.03401 26.9296 6.03401C26.7174 6.03401 26.5556 6.10634 26.4443 6.25081C26.333 6.39004 26.2773 6.63329 26.2773 6.98134V8.97226H25.0611V5.10281H25.0607ZM35.7296 6.83687C35.7296 7.00254 35.7188 7.18201 35.6972 7.3747H32.8671C32.8778 7.62631 32.9624 7.81862 33.1215 7.95279C33.2806 8.08637 33.4957 8.15345 33.7655 8.15345C34.142 8.15345 34.3806 8.03815 34.4812 7.80812H35.6739C35.6154 8.18826 35.4087 8.49567 35.0536 8.73134C34.7038 8.96137 34.2743 9.07667 33.7655 9.07667C33.1084 9.07667 32.5915 8.8972 32.2149 8.53865C31.844 8.1799 31.6583 7.67979 31.6583 7.03754C31.6583 6.62006 31.7431 6.25879 31.9128 5.9537C32.0767 5.64901 32.3293 5.40245 32.6363 5.24729C32.9493 5.08162 33.3123 4.9984 33.7262 4.9984C34.1181 4.9984 34.4652 5.07598 34.7674 5.23134C35.0747 5.3867 35.3109 5.60331 35.475 5.88156C35.6448 6.1602 35.7296 6.47851 35.7296 6.83687ZM34.5284 6.61209C34.5232 6.35523 34.4517 6.15962 34.3136 6.02604C34.1761 5.89245 33.977 5.82537 33.7174 5.82537C33.4577 5.82537 33.2511 5.89751 33.0972 6.04217C32.9489 6.1814 32.8721 6.37117 32.8665 6.61209H34.5284ZM36.2659 5.10281H37.4825V5.91365C37.5461 5.63501 37.6761 5.42112 37.8722 5.2714C38.0624 5.12012 38.2978 5.03806 38.5401 5.03865C38.6672 5.03865 38.7735 5.04954 38.858 5.07073V6.21076C38.7367 6.19598 38.6146 6.18801 38.4923 6.18665C38.1583 6.18665 37.9068 6.29612 37.737 6.51565C37.5671 6.72973 37.4825 7.05076 37.4825 7.47912V8.97226H36.2659V5.10281Z" fill="black"/>
</g>
</svg>
